<?xml version="1.0" ?><!DOCTYPE svg  PUBLIC '-//W3C//DTD SVG 1.1//EN'  'http://www.w3.org/Graphics/SVG/1.1/DTD/svg11.dtd'><svg enable-background="new 0 0 128 128" height="128px" id="Layer_1" version="1.1" viewBox="0 0 128 128" width="128px" xml:space="preserve" xmlns="http://www.w3.org/2000/svg" xmlns:xlink="http://www.w3.org/1999/xlink"><path d="M107,30c3.3,0,6,2.7,6,6v56c0,3.3-2.7,6-6,6H21c-3.3,0-6-2.7-6-6V36c0-3.3,2.7-6,6-6H107 M107,26H21  c-5.5,0-10,4.5-10,10v56c0,5.5,4.5,10,10,10h86c5.5,0,10-4.5,10-10V36C117,30.5,112.5,26,107,26L107,26z" fill="#2C3E50"/><path d="M47.9,65.4L23.2,86.7c-0.8,0.7-0.9,2-0.2,2.8c0.7,0.8,2,0.9,2.8,0.2l25.1-21.7L47.9,65.4z" fill="#3B97D3"/><path d="M80,65.5l-3,2.7l24.8,21.7c0.8,0.7,2.1,0.6,2.8-0.2c0.7-0.8,0.6-2.1-0.2-2.8L80,65.5z" fill="#3B97D3"/><path d="M104.5,38.7c-0.7-0.8-2-0.9-2.8-0.2L64,71.4l-38.2-33c-0.8-0.7-2.1-0.6-2.8,0.2c-0.7,0.8-0.6,2.1,0.2,2.8  l39.5,34.1c0.4,0.3,0.8,0.5,1.3,0.5c0.5,0,0.9-0.2,1.3-0.5c0,0,0,0,0,0l39-34.1C105.1,40.8,105.2,39.5,104.5,38.7z" fill="#3B97D3"/></svg>